<svg width="257" height="113" viewBox="0 0 257 113" fill="none" xmlns="http://www.w3.org/2000/svg">
<rect x="0.466797" y="40.2119" width="251" height="73" rx="10" transform="rotate(-4.92349 0.466797 40.2119)" fill="white"/>
<path d="M17.1491 92.5125L14.2654 59.0365L30.7643 57.6152C34.4945 57.2939 37.8374 57.6965 40.793 58.823C43.7458 59.9176 46.1264 61.6396 47.9347 63.9891C49.743 66.3386 50.7955 69.2349 51.0921 72.6782C51.3915 76.1533 50.8526 79.2189 49.4754 81.8748C48.0956 84.499 46.0459 86.6187 43.3265 88.234C40.6044 89.8175 37.3782 90.7699 33.648 91.0912L17.1491 92.5125ZM27.6773 82.7409L32.4118 82.333C34.0059 82.1957 35.3667 81.7734 36.4941 81.066C37.6534 80.3559 38.5171 79.3822 39.085 78.1448C39.6501 76.8757 39.8585 75.3803 39.7102 73.6586C39.5647 71.9689 39.1063 70.563 38.3352 69.4411C37.5641 68.3191 36.5466 67.5075 35.2829 67.0061C34.0511 66.5019 32.6382 66.3185 31.0441 66.4558L26.3096 66.8637L27.6773 82.7409ZM70.808 88.3719C67.6198 88.6466 64.7793 88.2971 62.2866 87.3234C59.8257 86.347 57.8538 84.8949 56.3709 82.9671C54.8852 81.0074 54.0311 78.7363 53.8087 76.1538C53.5807 73.5076 54.0165 71.1094 55.116 68.9591C56.2474 66.806 57.8795 65.0595 60.0124 63.7195C62.1771 62.3768 64.6623 61.5846 67.4679 61.3429C70.0503 61.1204 72.4695 61.4259 74.7253 62.2594C77.0131 63.0901 78.897 64.4534 80.3772 66.3494C81.8893 68.2426 82.773 70.6717 83.0285 73.6368C83.0614 74.0193 83.0825 74.4511 83.0919 74.9321C83.0984 75.3812 83.1022 75.7984 83.1033 76.1837L62.9699 77.9181L62.5208 72.7054L76.9155 71.4654L72.9701 73.2024C72.8822 72.1822 72.6167 71.3379 72.1737 70.6694C71.7599 69.9663 71.2176 69.451 70.547 69.1233C69.8737 68.7638 69.0907 68.6225 68.198 68.6994C67.3053 68.7763 66.542 69.0508 65.9082 69.5229C65.3035 69.9604 64.8574 70.5609 64.5699 71.3244C64.2796 72.056 64.1784 72.932 64.2663 73.9522L64.4064 75.5782C64.5025 76.694 64.8081 77.6313 65.3231 78.3899C65.8381 79.1485 66.5279 79.6993 67.3925 80.0423C68.2544 80.3535 69.2752 80.4583 70.4548 80.3567C71.6663 80.2523 72.6409 80.0078 73.3786 79.623C74.1482 79.2356 74.9359 78.6859 75.7418 77.9741L81.8752 83.1789C80.718 84.6597 79.2305 85.8478 77.4126 86.7431C75.6239 87.6038 73.4223 88.1467 70.808 88.3719ZM97.8433 86.043C95.6115 86.2353 93.3911 86.1857 91.1819 85.8942C88.9727 85.6027 87.1657 85.1321 85.7607 84.4823L88.1119 77.1012C89.4185 77.7274 90.9026 78.1777 92.5643 78.4521C94.2579 78.7238 95.8857 78.7923 97.448 78.6577C98.7551 78.5451 99.6223 78.358 100.049 78.0964C100.508 77.832 100.721 77.5085 100.688 77.126C100.655 76.7434 100.361 76.4957 99.8054 76.383C99.247 76.2384 98.5173 76.1567 97.6163 76.138C96.7154 76.1192 95.7174 76.0928 94.6225 76.0586C93.5566 75.9898 92.4694 75.8587 91.3607 75.6651C90.252 75.4716 89.2265 75.1263 88.2844 74.6293C87.3423 74.1323 86.559 73.429 85.9346 72.5192C85.3075 71.5776 84.9294 70.3575 84.8003 68.8591C84.6575 67.2012 85.0226 65.6602 85.8956 64.236C86.8005 62.8091 88.2069 61.6119 90.1149 60.6446C92.0521 59.6427 94.4872 59.0153 97.4204 58.7627C99.3333 58.5979 101.261 58.6085 103.204 58.7944C105.148 58.9803 106.836 59.3808 108.27 59.996L105.919 67.3771C104.517 66.7591 103.151 66.3789 101.822 66.2365C100.522 66.0594 99.3141 66.0189 98.1982 66.115C96.8273 66.2331 95.8978 66.4417 95.4097 66.7407C94.9534 67.0369 94.739 67.3445 94.7665 67.6633C94.7994 68.0459 95.0951 68.3095 95.6536 68.4541C96.2121 68.5987 96.9418 68.6803 97.8427 68.6991C98.7436 68.7178 99.727 68.7616 100.793 68.8304C101.888 68.8645 102.975 68.9957 104.055 69.2239C105.163 69.4174 106.189 69.7627 107.131 70.2597C108.073 70.7567 108.858 71.476 109.485 72.4176C110.109 73.3274 110.486 74.5315 110.615 76.03C110.75 77.5922 110.382 79.1013 109.512 80.5574C108.639 81.9815 107.233 83.1946 105.296 84.1966C103.356 85.1666 100.872 85.7821 97.8433 86.043ZM114.608 84.1171L112.355 57.9579L123.163 57.0269L125.416 83.186L114.608 84.1171ZM117.578 55.3882C115.601 55.5585 113.978 55.1684 112.707 54.2179C111.437 53.2674 110.735 52.0111 110.6 50.4488C110.465 48.8866 110.943 47.5287 112.032 46.3749C113.121 45.2212 114.654 44.5592 116.63 44.3889C118.607 44.2187 120.228 44.5769 121.492 45.4636C122.757 46.3503 123.457 47.5748 123.591 49.137C123.734 50.7949 123.263 52.2166 122.176 53.4022C121.087 54.5559 119.554 55.2179 117.578 55.3882ZM144.342 91.384C141.76 91.6064 139.313 91.5442 137.003 91.1972C134.693 90.8502 132.678 90.2047 130.958 89.2608L133.959 81.583C135.047 82.2921 136.392 82.8026 137.993 83.1144C139.628 83.4553 141.147 83.5653 142.55 83.4445C144.782 83.2522 146.335 82.6367 147.209 81.5978C148.086 80.5909 148.448 79.2106 148.297 77.4571L148.108 75.2573L147.886 67.0862L147.233 58.9522L146.891 54.9829L157.173 54.0971L158.978 75.0436C159.414 80.1128 158.336 83.9957 155.741 86.6923C153.147 89.3889 149.348 90.9528 144.342 91.384ZM141.274 80.3747C139.074 80.5642 136.974 80.2312 134.973 79.3758C132.969 78.4885 131.297 77.1551 129.955 75.3757C128.613 73.5963 127.831 71.4153 127.609 68.8329C127.386 66.2505 127.784 63.9679 128.802 61.9853C129.819 60.0026 131.241 58.4188 133.066 57.2338C134.891 56.0488 136.903 55.3615 139.103 55.172C141.366 54.977 143.254 55.2641 144.766 56.0332C146.309 56.7995 147.513 58.093 148.376 59.9136C149.237 61.7024 149.791 64.0314 150.038 66.9008C150.285 69.7702 150.139 72.1756 149.6 74.117C149.057 76.0266 148.093 77.5069 146.706 78.5578C145.348 79.574 143.538 80.1797 141.274 80.3747ZM143.418 71.7107C144.279 71.6365 145.029 71.3953 145.668 70.9869C146.308 70.5785 146.791 70.039 147.119 69.3684C147.447 68.6978 147.575 67.9481 147.503 67.1191C147.429 66.2583 147.175 65.5415 146.74 64.9687C146.302 64.364 145.735 63.9311 145.038 63.67C144.338 63.377 143.558 63.2675 142.697 63.3417C141.868 63.4131 141.118 63.6543 140.447 64.0655C139.805 64.442 139.304 64.9669 138.945 65.6402C138.614 66.2789 138.486 67.0287 138.56 67.8895C138.632 68.7184 138.886 69.4352 139.324 70.0399C139.793 70.6419 140.378 71.0893 141.077 71.3824C141.809 71.6726 142.589 71.7821 143.418 71.7107ZM180.084 51.6418C182.093 51.4687 183.946 51.7267 185.643 52.4155C187.338 53.0725 188.721 54.222 189.794 55.864C190.899 57.5032 191.57 59.6937 191.806 62.4356L193.091 77.3563L182.283 78.2874L181.158 65.2317C181.018 63.6057 180.633 62.4827 180.001 61.8626C179.367 61.2106 178.555 60.9272 177.567 61.0124C176.834 61.0755 176.163 61.3099 175.556 61.7156C174.978 62.0866 174.53 62.6711 174.214 63.4692C173.929 64.2646 173.843 65.3159 173.955 66.6231L175.014 78.9135L164.206 79.8446L161.953 53.6854L172.235 52.7997L172.894 60.4514L170.648 58.4287C171.498 56.3641 172.741 54.7635 174.377 53.6269C176.046 52.4875 177.948 51.8258 180.084 51.6418ZM212.736 76.1459C209.547 76.4205 206.707 76.071 204.214 75.0973C201.753 74.1209 199.781 72.6688 198.298 70.741C196.813 68.7813 195.959 66.5102 195.736 63.9278C195.508 61.2816 195.944 58.8833 197.043 56.733C198.175 54.58 199.807 52.8334 201.94 51.4934C204.105 50.1507 206.59 49.3585 209.395 49.1168C211.978 48.8943 214.397 49.1998 216.653 50.0333C218.941 50.864 220.825 52.2274 222.305 54.1233C223.817 56.0165 224.701 58.4456 224.956 61.4107C224.989 61.7932 225.01 62.225 225.019 62.706C225.026 63.1551 225.03 63.5723 225.031 63.9576L204.897 65.692L204.448 60.4793L218.843 59.2393L214.898 60.9763C214.81 59.9561 214.544 59.1118 214.101 58.4433C213.687 57.7403 213.145 57.2249 212.475 56.8972C211.801 56.5377 211.018 56.3964 210.125 56.4733C209.233 56.5502 208.47 56.8247 207.836 57.2968C207.231 57.7343 206.785 58.3349 206.497 59.0983C206.207 59.83 206.106 60.7059 206.194 61.7261L206.334 63.3521C206.43 64.4679 206.736 65.4052 207.251 66.1638C207.766 66.9224 208.455 67.4732 209.32 67.8163C210.182 68.1274 211.203 68.2322 212.382 68.1306C213.594 68.0262 214.568 67.7817 215.306 67.397C216.076 67.0095 216.863 66.4598 217.669 65.748L223.803 70.9529C222.645 72.4336 221.158 73.6217 219.34 74.517C217.551 75.3777 215.35 75.9207 212.736 76.1459ZM229.495 74.2203L227.242 48.0612L237.524 47.1755L238.204 55.0663L236.336 52.9628C236.958 50.8537 238.101 49.2135 239.767 48.0422C241.432 46.8709 243.493 46.1796 245.947 45.9681L246.771 55.5327C246.288 55.5101 245.853 55.4994 245.468 55.5004C245.114 55.4988 244.746 55.5144 244.364 55.5474C242.738 55.6874 241.436 56.2332 240.458 57.1846C239.509 58.1014 239.124 59.596 239.302 61.6683L240.303 73.2893L229.495 74.2203Z" fill="#009406"/>
<line x1="85.3996" y1="37.6309" x2="118.4" y2="1.63092" stroke="white" stroke-width="2"/>
<path d="M165.611 32.1572L122 2.5" stroke="white" stroke-width="2"/>
</svg>
