<svg width="251" height="102" viewBox="0 0 251 102" fill="none" xmlns="http://www.w3.org/2000/svg">
<rect y="29" width="251" height="73" rx="10" fill="white"/>
<path d="M12.1325 82.5391V48.9391H28.6925C32.4365 48.9391 35.7325 49.6271 38.5805 51.0031C41.4285 52.3471 43.6525 54.2671 45.2525 56.7631C46.8525 59.2591 47.6525 62.2351 47.6525 65.6911C47.6525 69.1791 46.8525 72.1871 45.2525 74.7151C43.6525 77.2111 41.4285 79.1471 38.5805 80.5231C35.7325 81.8671 32.4365 82.5391 28.6925 82.5391H12.1325ZM23.4605 73.7071H28.2125C29.8125 73.7071 31.2045 73.4031 32.3885 72.7951C33.6045 72.1871 34.5485 71.2911 35.2205 70.1071C35.8925 68.8911 36.2285 67.4191 36.2285 65.6911C36.2285 63.9951 35.8925 62.5551 35.2205 61.3711C34.5485 60.1871 33.6045 59.2911 32.3885 58.6831C31.2045 58.0751 29.8125 57.7711 28.2125 57.7711H23.4605V73.7071ZM65.9487 83.0191C62.7487 83.0191 59.9487 82.4271 57.5487 81.2431C55.1807 80.0591 53.3407 78.4431 52.0287 76.3951C50.7167 74.3151 50.0607 71.9791 50.0607 69.3871C50.0607 66.7311 50.7007 64.3791 51.9807 62.3311C53.2927 60.2831 55.0687 58.6831 57.3087 57.5311C59.5807 56.3791 62.1247 55.8031 64.9407 55.8031C67.5327 55.8031 69.9167 56.3151 72.0927 57.3391C74.3007 58.3631 76.0607 59.8831 77.3727 61.8991C78.7167 63.9151 79.3887 66.4111 79.3887 69.3871C79.3887 69.7711 79.3727 70.2031 79.3407 70.6831C79.3087 71.1311 79.2767 71.5471 79.2447 71.9311H59.0367V66.6991H73.4847L69.4047 68.0911C69.4047 67.0671 69.2127 66.2031 68.8287 65.4991C68.4767 64.7631 67.9807 64.2031 67.3407 63.8191C66.7007 63.4031 65.9327 63.1951 65.0367 63.1951C64.1407 63.1951 63.3567 63.4031 62.6847 63.8191C62.0447 64.2031 61.5487 64.7631 61.1967 65.4991C60.8447 66.2031 60.6687 67.0671 60.6687 68.0911V69.7231C60.6687 70.8431 60.8927 71.8031 61.3407 72.6031C61.7887 73.4031 62.4287 74.0111 63.2607 74.4271C64.0927 74.8111 65.1007 75.0031 66.2847 75.0031C67.5007 75.0031 68.4927 74.8431 69.2607 74.5231C70.0607 74.2031 70.8927 73.7231 71.7567 73.0831L77.4207 78.7951C76.1407 80.1711 74.5567 81.2271 72.6687 81.9631C70.8127 82.6671 68.5727 83.0191 65.9487 83.0191ZM93.0841 83.0191C90.8441 83.0191 88.6361 82.7791 86.4601 82.2991C84.2841 81.8191 82.5241 81.1951 81.1801 80.4271L84.1561 73.2751C85.4041 74.0111 86.8441 74.5871 88.4761 75.0031C90.1401 75.4191 91.7561 75.6271 93.3241 75.6271C94.6361 75.6271 95.5161 75.5151 95.9641 75.2911C96.4441 75.0671 96.6841 74.7631 96.6841 74.3791C96.6841 73.9951 96.4121 73.7231 95.8681 73.5631C95.3241 73.3711 94.6041 73.2271 93.7081 73.1311C92.8121 73.0351 91.8201 72.9231 90.7321 72.7951C89.6761 72.6351 88.6041 72.4111 87.5161 72.1231C86.4281 71.8351 85.4361 71.4031 84.5401 70.8271C83.6441 70.2511 82.9241 69.4831 82.3801 68.5231C81.8361 67.5311 81.5641 66.2831 81.5641 64.7791C81.5641 63.1151 82.0601 61.6111 83.0521 60.2671C84.0761 58.9231 85.5801 57.8511 87.5641 57.0511C89.5801 56.2191 92.0601 55.8031 95.0041 55.8031C96.9241 55.8031 98.8441 55.9791 100.764 56.3311C102.684 56.6831 104.332 57.2271 105.708 57.9631L102.732 65.1151C101.388 64.3791 100.06 63.8831 98.7481 63.6271C97.4681 63.3391 96.2681 63.1951 95.1481 63.1951C93.7721 63.1951 92.8281 63.3231 92.3161 63.5791C91.8361 63.8351 91.5961 64.1231 91.5961 64.4431C91.5961 64.8271 91.8681 65.1151 92.4121 65.3071C92.9561 65.4991 93.6761 65.6431 94.5721 65.7391C95.4681 65.8351 96.4441 65.9631 97.5001 66.1231C98.5881 66.2511 99.6601 66.4751 100.716 66.7951C101.804 67.0831 102.796 67.5151 103.692 68.0911C104.588 68.6671 105.308 69.4511 105.852 70.4431C106.396 71.4031 106.668 72.6351 106.668 74.1391C106.668 75.7071 106.172 77.1791 105.18 78.5551C104.188 79.8991 102.684 80.9871 100.668 81.8191C98.6521 82.6191 96.1241 83.0191 93.0841 83.0191ZM109.953 82.5391V56.2831H120.801V82.5391H109.953ZM115.377 54.1711C113.393 54.1711 111.809 53.6431 110.625 52.5871C109.441 51.5311 108.849 50.2191 108.849 48.6511C108.849 47.0831 109.441 45.7711 110.625 44.7151C111.809 43.6591 113.393 43.1311 115.377 43.1311C117.361 43.1311 118.945 43.6271 120.129 44.6191C121.313 45.6111 121.905 46.8911 121.905 48.4591C121.905 50.1231 121.313 51.4991 120.129 52.5871C118.945 53.6431 117.361 54.1711 115.377 54.1711ZM138.953 92.3311C136.361 92.3311 133.929 92.0591 131.657 91.5151C129.385 90.9711 127.433 90.1551 125.801 89.0671L129.449 81.6751C130.473 82.4751 131.769 83.0991 133.337 83.5471C134.937 84.0271 136.441 84.2671 137.849 84.2671C140.089 84.2671 141.689 83.7871 142.649 82.8271C143.609 81.8991 144.089 80.5551 144.089 78.7951V76.5871L144.569 68.4271L144.617 60.2671V56.2831H154.937V77.3071C154.937 82.3951 153.529 86.1711 150.713 88.6351C147.897 91.0991 143.977 92.3311 138.953 92.3311ZM136.841 81.0991C134.633 81.0991 132.569 80.5871 130.649 79.5631C128.729 78.5071 127.177 77.0351 125.993 75.1471C124.809 73.2591 124.217 71.0191 124.217 68.4271C124.217 65.8351 124.809 63.5951 125.993 61.7071C127.177 59.8191 128.729 58.3631 130.649 57.3391C132.569 56.3151 134.633 55.8031 136.841 55.8031C139.113 55.8031 140.969 56.2511 142.409 57.1471C143.881 58.0431 144.969 59.4351 145.673 61.3231C146.377 63.1791 146.729 65.5471 146.729 68.4271C146.729 71.3071 146.377 73.6911 145.673 75.5791C144.969 77.4351 143.881 78.8271 142.409 79.7551C140.969 80.6511 139.113 81.0991 136.841 81.0991ZM139.721 72.6511C140.585 72.6511 141.353 72.4751 142.025 72.1231C142.697 71.7711 143.225 71.2751 143.609 70.6351C143.993 69.9951 144.185 69.2591 144.185 68.4271C144.185 67.5631 143.993 66.8271 143.609 66.2191C143.225 65.5791 142.697 65.0991 142.025 64.7791C141.353 64.4271 140.585 64.2511 139.721 64.2511C138.889 64.2511 138.121 64.4271 137.417 64.7791C136.745 65.0991 136.201 65.5791 135.785 66.2191C135.401 66.8271 135.209 67.5631 135.209 68.4271C135.209 69.2591 135.401 69.9951 135.785 70.6351C136.201 71.2751 136.745 71.7711 137.417 72.1231C138.121 72.4751 138.889 72.6511 139.721 72.6511ZM177.974 55.8031C179.99 55.8031 181.814 56.2191 183.446 57.0511C185.078 57.8511 186.358 59.1151 187.286 60.8431C188.246 62.5711 188.726 64.8111 188.726 67.5631V82.5391H177.878V69.4351C177.878 67.8031 177.59 66.6511 177.014 65.9791C176.438 65.2751 175.654 64.9231 174.662 64.9231C173.926 64.9231 173.238 65.0991 172.598 65.4511C171.99 65.7711 171.494 66.3151 171.11 67.0831C170.758 67.8511 170.582 68.8911 170.582 70.2031V82.5391H159.734V56.2831H170.054V63.9631L167.99 61.7551C169.014 59.7711 170.39 58.2831 172.118 57.2911C173.878 56.2991 175.83 55.8031 177.974 55.8031ZM208.402 83.0191C205.202 83.0191 202.402 82.4271 200.002 81.2431C197.634 80.0591 195.794 78.4431 194.482 76.3951C193.17 74.3151 192.514 71.9791 192.514 69.3871C192.514 66.7311 193.154 64.3791 194.434 62.3311C195.746 60.2831 197.522 58.6831 199.762 57.5311C202.034 56.3791 204.578 55.8031 207.394 55.8031C209.986 55.8031 212.37 56.3151 214.546 57.3391C216.754 58.3631 218.514 59.8831 219.826 61.8991C221.17 63.9151 221.842 66.4111 221.842 69.3871C221.842 69.7711 221.826 70.2031 221.794 70.6831C221.762 71.1311 221.73 71.5471 221.698 71.9311H201.49V66.6991H215.938L211.858 68.0911C211.858 67.0671 211.666 66.2031 211.282 65.4991C210.93 64.7631 210.434 64.2031 209.794 63.8191C209.154 63.4031 208.386 63.1951 207.49 63.1951C206.594 63.1951 205.81 63.4031 205.138 63.8191C204.498 64.2031 204.002 64.7631 203.65 65.4991C203.298 66.2031 203.122 67.0671 203.122 68.0911V69.7231C203.122 70.8431 203.346 71.8031 203.794 72.6031C204.242 73.4031 204.882 74.0111 205.714 74.4271C206.546 74.8111 207.554 75.0031 208.738 75.0031C209.954 75.0031 210.946 74.8431 211.714 74.5231C212.514 74.2031 213.346 73.7231 214.21 73.0831L219.874 78.7951C218.594 80.1711 217.01 81.2271 215.122 81.9631C213.266 82.6671 211.026 83.0191 208.402 83.0191ZM225.265 82.5391V56.2831H235.585V64.2031L233.905 61.9471C234.705 59.8991 235.985 58.3631 237.745 57.3391C239.505 56.3151 241.617 55.8031 244.081 55.8031V65.4031C243.601 65.3391 243.169 65.2911 242.785 65.2591C242.433 65.2271 242.065 65.2111 241.681 65.2111C240.049 65.2111 238.705 65.6431 237.649 66.5071C236.625 67.3391 236.113 68.7951 236.113 70.8751V82.5391H225.265Z" fill="#009406"/>
<line x1="82.2526" y1="37.3356" x2="114.253" y2="1.33564" stroke="white" stroke-width="2"/>
<path d="M162.475 31.8506L116 2" stroke="white" stroke-width="2"/>
</svg>
